<?xml version="1.0" encoding="UTF-8" standalone="no"?>
<svg
   xmlns:dc="http://purl.org/dc/elements/1.1/"
   xmlns:cc="http://creativecommons.org/ns#"
   xmlns:rdf="http://www.w3.org/1999/02/22-rdf-syntax-ns#"
   xmlns:svg="http://www.w3.org/2000/svg"
   xmlns="http://www.w3.org/2000/svg"
   viewBox="0 0 960 960"
   height="960"
   width="960"
   xml:space="preserve"
   id="svg2"

   version="1.1"><metadata
     id="metadata8"><rdf:RDF><cc:Work
         rdf:about=""><dc:format>image/svg+xml</dc:format><dc:type
           rdf:resource="http://purl.org/dc/dcmitype/StillImage" /></cc:Work></rdf:RDF></metadata><defs
     id="defs6"><clipPath
       id="clipPath30"
       clipPathUnits="userSpaceOnUse"><path
         id="path28"
         d="M 0,720 H 720 V 0 H 0 Z" /></clipPath></defs><g
     transform="matrix(1.3333333,0,0,-1.3333333,0,960)"
     id="g10"><g
       transform="translate(287.6255,438.1079)"
       id="g12"><path
         id="path14"
         style="fill:#434390CC;fill-opacity:1;fill-rule:nonzero;stroke:none"
         d="M 0,0 -17.51,-49.264 -30.819,0 h -40.858 l 44.594,-156.898 h 40.392 l -28.251,98.062 16.576,46.929 40.158,-144.991 H 83.119 L 38.525,0 Z" /></g><g
       transform="translate(201.7056,438.1079)"
       id="g16"><path
         id="path18"
         style="fill:#434390CC;fill-opacity:1;fill-rule:nonzero;stroke:none"
         d="m 0,0 -39.689,-156.898 h 5.834 L 2.802,-13.075 22.648,-85.92 h 5.835 L 4.904,0 Z" /></g><g
       transform="translate(131.2617,494.7725)"
       id="g20"><path
         id="path22"
         style="fill:#434390CC;fill-opacity:1;fill-rule:nonzero;stroke:none"
         d="m 0,0 h 270.229 v -10.912 -248.402 -10.915 H 0 Z m -9.276,-279.506 h 288.782 v 20.192 2.512 115.636 130.254 20.188 H -9.276 Z" /></g><g
       id="g24"><g
         clip-path="url(#clipPath30)"
         id="g26"><g
           transform="translate(570.3369,424.0581)"
           id="g32"><path
             id="path34"
             style="fill:#434390CC;fill-opacity:1;fill-rule:nonzero;stroke:none"
             d="M 0,0 6.779,5.083 C -13.9,34.914 -44.746,57.29 -92.204,57.29 c -20.115,0 -38.786,-5.179 -55.028,-14.009 v -113.733 -93.681 c 2.351,-1.278 4.762,-2.497 7.23,-3.663 V -70.452 35.93 c 9.151,5.764 24.066,12.544 47.798,12.544 C -49.835,48.474 -19.664,27.459 0,0" /></g><g
           transform="translate(490.6719,370.1606)"
           id="g36"><path
             id="path38"
             style="fill:#434390CC;fill-opacity:1;fill-rule:nonzero;stroke:none"
             d="m 0,0 v -8.476 h 97.627 c 0,-49.153 -37.966,-107.459 -111.523,-107.459 -9.491,0 -16.951,2.036 -21.359,3.727 V 0 h -9.486 v -119.663 c 6.439,-2.712 17.962,-5.423 30.845,-5.423 77.629,0 121.02,57.289 121.02,125.086 z" /></g></g></g></g></svg>